<svg xmlns="http://www.w3.org/2000/svg" version="1.1" xmlns:xlink="http://www.w3.org/1999/xlink" xmlns:svgjs="http://svgjs.dev/svgjs" width="1560" height="720" preserveAspectRatio="none" viewBox="0 0 1560 720"><g mask="url(&quot;#SvgjsMask1190&quot;)" fill="none"><rect width="1560" height="720" x="0" y="0" fill="url(&quot;#SvgjsLinearGradient1191&quot;)"></rect><path d="M 0,647 C 104,523.2 312,16.2 520,28 C 728,39.8 832,669.6 1040,706 C 1248,742.4 1456,309.2 1560,210L1560 720L0 720z" fill="rgba(22, 118, 140, 1)"></path><path d="M 0,381 C 62.4,308 187.2,-17 312,16 C 436.8,49 499.2,516.4 624,546 C 748.8,575.6 811.2,171 936,164 C 1060.8,157 1123.2,532.6 1248,511 C 1372.8,489.4 1497.6,147 1560,56L1560 720L0 720z" fill="rgba(197, 11, 165, 1)"></path><path d="M 0,524 C 20.8,485 62.4,319.6 104,329 C 145.6,338.4 166.4,610.8 208,571 C 249.6,531.2 270.4,144.2 312,130 C 353.6,115.8 374.4,464 416,500 C 457.6,536 478.4,278.2 520,310 C 561.6,341.8 582.4,671.6 624,659 C 665.6,646.4 686.4,284.2 728,247 C 769.6,209.8 790.4,468.4 832,473 C 873.6,477.6 894.4,282.2 936,270 C 977.6,257.8 998.4,398.6 1040,412 C 1081.6,425.4 1102.4,319.4 1144,337 C 1185.6,354.6 1206.4,531.8 1248,500 C 1289.6,468.2 1310.4,196.8 1352,178 C 1393.6,159.2 1414.4,402 1456,406 C 1497.6,410 1539.2,239.6 1560,198L1560 720L0 720z" fill="rgba(78, 23, 53, 1)"></path></g><defs><mask id="SvgjsMask1190"><rect width="1560" height="720" fill="#ffffff"></rect></mask><linearGradient x1="13.46%" y1="-29.17%" x2="86.54%" y2="129.17%" gradientUnits="userSpaceOnUse" id="SvgjsLinearGradient1191"><stop stop-color="#0e2a47" offset="0"></stop><stop stop-color="rgba(31, 52, 77, 1)" offset="1"></stop></linearGradient></defs></svg>